<mxfile host="app.diagrams.net" agent="Mozilla/5.0 (Windows NT 10.0; Win64; x64) AppleWebKit/537.36 (KHTML, like Gecko) Chrome/137.0.0.0 Safari/537.36" version="27.1.4">
  <diagram name="Trang-1" id="8mHU2c0TaZHSWXB-FZrV">
    <mxGraphModel dx="4799" dy="5467" grid="1" gridSize="10" guides="1" tooltips="1" connect="1" arrows="1" fold="1" page="1" pageScale="1" pageWidth="3300" pageHeight="4681" math="0" shadow="0">
      <root>
        <mxCell id="0" />
        <mxCell id="1" parent="0" />
        <mxCell id="-ZWm0wnhT3yQVJ8AxPes-1" value="" style="whiteSpace=wrap;html=1;aspect=fixed;fillColor=light-dark(#FFFFFF,#FFFFFF);strokeColor=none;labelBorderColor=light-dark(#000000,#FFFFFF);strokeWidth=2;fontStyle=1" parent="1" vertex="1">
          <mxGeometry x="-430" y="-1710" width="5140" height="5140" as="geometry" />
        </mxCell>
        <mxCell id="-ZWm0wnhT3yQVJ8AxPes-6" value="&lt;font style=&quot;color: light-dark(rgb(0, 0, 0), rgb(0, 0, 0));&quot;&gt;Quản trị viên&lt;/font&gt;" style="shape=umlActor;verticalLabelPosition=bottom;verticalAlign=top;html=1;outlineConnect=0;strokeColor=light-dark(#000000,#000000);fillStyle=solid;fillColor=none;strokeWidth=2;fontStyle=1" parent="1" vertex="1">
          <mxGeometry x="660" y="-70" width="30" height="60" as="geometry" />
        </mxCell>
        <mxCell id="-ZWm0wnhT3yQVJ8AxPes-15" value="&lt;font style=&quot;color: light-dark(rgb(0, 0, 0), rgb(0, 0, 0)); font-size: 16px;&quot;&gt;Quản lý Người Dùng&amp;nbsp;&lt;/font&gt;" style="ellipse;whiteSpace=wrap;html=1;fillColor=none;strokeColor=light-dark(#000000,#000000);strokeWidth=2;fontStyle=1" parent="1" vertex="1">
          <mxGeometry x="910" y="-360" width="250" height="60" as="geometry" />
        </mxCell>
        <mxCell id="-ZWm0wnhT3yQVJ8AxPes-34" value="" style="endArrow=none;html=1;rounded=0;strokeColor=light-dark(#000000,#000000);entryX=0;entryY=0.5;entryDx=0;entryDy=0;strokeWidth=2;fontStyle=1" parent="1" source="-ZWm0wnhT3yQVJ8AxPes-6" target="-ZWm0wnhT3yQVJ8AxPes-17" edge="1">
          <mxGeometry width="50" height="50" relative="1" as="geometry">
            <mxPoint x="2520" y="526" as="sourcePoint" />
            <mxPoint x="2685" y="480" as="targetPoint" />
          </mxGeometry>
        </mxCell>
        <mxCell id="-ZWm0wnhT3yQVJ8AxPes-37" value="" style="endArrow=none;html=1;rounded=0;strokeColor=light-dark(#000000,#000000);strokeWidth=2;fontStyle=1;entryX=0;entryY=0.5;entryDx=0;entryDy=0;exitX=1;exitY=0.3333333333333333;exitDx=0;exitDy=0;exitPerimeter=0;" parent="1" source="-ZWm0wnhT3yQVJ8AxPes-6" target="-ZWm0wnhT3yQVJ8AxPes-15" edge="1">
          <mxGeometry width="50" height="50" relative="1" as="geometry">
            <mxPoint x="909.19" y="59.995324684695554" as="sourcePoint" />
            <mxPoint x="1209.9979219591946" y="-180.5442323934501" as="targetPoint" />
          </mxGeometry>
        </mxCell>
        <mxCell id="-ZWm0wnhT3yQVJ8AxPes-115" style="edgeStyle=orthogonalEdgeStyle;rounded=0;orthogonalLoop=1;jettySize=auto;html=1;exitX=0.5;exitY=1;exitDx=0;exitDy=0;strokeWidth=2;fontStyle=1" parent="1" edge="1">
          <mxGeometry relative="1" as="geometry">
            <mxPoint x="3880" y="549" as="sourcePoint" />
            <mxPoint x="3880" y="549" as="targetPoint" />
          </mxGeometry>
        </mxCell>
        <mxCell id="--2P5zktpjVNsyAi5NLY-8" value="&lt;span style=&quot;font-size: 40px;&quot;&gt;&lt;b&gt;Website bán đồng phục học sinh&lt;/b&gt;&lt;/span&gt;" style="text;html=1;align=center;verticalAlign=middle;whiteSpace=wrap;rounded=0;" parent="1" vertex="1">
          <mxGeometry x="1155" y="-560" width="670" height="30" as="geometry" />
        </mxCell>
        <mxCell id="--2P5zktpjVNsyAi5NLY-10" value="&lt;font style=&quot;color: light-dark(rgb(0, 0, 0), rgb(0, 0, 0));&quot;&gt;Người dùng&amp;nbsp;&lt;/font&gt;" style="shape=umlActor;verticalLabelPosition=bottom;verticalAlign=top;html=1;outlineConnect=0;strokeColor=light-dark(#000000,#000000);fillStyle=solid;fillColor=none;strokeWidth=2;fontStyle=1" parent="1" vertex="1">
          <mxGeometry x="2280" y="-10" width="30" height="60" as="geometry" />
        </mxCell>
        <mxCell id="-ZWm0wnhT3yQVJ8AxPes-17" value="&lt;font style=&quot;color: light-dark(rgb(0, 0, 0), rgb(0, 0, 0)); font-size: 16px;&quot;&gt;Quản lý danh mục sản phẩm&lt;/font&gt;" style="ellipse;whiteSpace=wrap;html=1;fillColor=none;strokeColor=light-dark(#000000,#000000);strokeWidth=2;fontStyle=1" parent="1" vertex="1">
          <mxGeometry x="890" y="-250" width="260" height="60" as="geometry" />
        </mxCell>
        <mxCell id="--2P5zktpjVNsyAi5NLY-18" value="&lt;font style=&quot;color: light-dark(rgb(0, 0, 0), rgb(0, 0, 0));&quot;&gt;&lt;span style=&quot;font-size: 16px;&quot;&gt;Đăng Ký&amp;nbsp;&lt;/span&gt;&lt;/font&gt;" style="ellipse;whiteSpace=wrap;html=1;fillColor=none;strokeColor=light-dark(#000000,#000000);strokeWidth=2;fontStyle=1" parent="1" vertex="1">
          <mxGeometry x="1765" y="130" width="170" height="40" as="geometry" />
        </mxCell>
        <mxCell id="--2P5zktpjVNsyAi5NLY-30" value="&lt;font style=&quot;color: light-dark(rgb(0, 0, 0), rgb(0, 0, 0));&quot;&gt;&lt;span style=&quot;font-size: 16px;&quot;&gt;Tìm Kiếm Sản Phẩm&amp;nbsp;&lt;/span&gt;&lt;/font&gt;" style="ellipse;whiteSpace=wrap;html=1;fillColor=none;strokeColor=light-dark(#000000,#000000);strokeWidth=2;fontStyle=1" parent="1" vertex="1">
          <mxGeometry x="2060" y="-300" width="170" height="60" as="geometry" />
        </mxCell>
        <mxCell id="--2P5zktpjVNsyAi5NLY-29" value="&lt;font style=&quot;color: light-dark(rgb(0, 0, 0), rgb(0, 0, 0));&quot;&gt;&lt;span style=&quot;font-size: 16px;&quot;&gt;Xem danh sách sản phẩm&amp;nbsp;&lt;/span&gt;&lt;/font&gt;" style="ellipse;whiteSpace=wrap;html=1;fillColor=none;strokeColor=light-dark(#000000,#000000);strokeWidth=2;fontStyle=1" parent="1" vertex="1">
          <mxGeometry x="1740" y="-310" width="240" height="60" as="geometry" />
        </mxCell>
        <mxCell id="--2P5zktpjVNsyAi5NLY-40" value="&lt;div style=&quot;&quot;&gt;&lt;span style=&quot;color: light-dark(rgb(0, 0, 0), rgb(0, 0, 0)); background-color: light-dark(rgb(255, 255, 255), rgb(255, 255, 255));&quot;&gt;&lt;font face=&quot;Helvetica&quot;&gt;&amp;lt;&amp;lt; include &amp;gt;&amp;gt;&lt;/font&gt;&lt;/span&gt;&lt;/div&gt;" style="endArrow=open;endSize=12;dashed=1;html=1;rounded=0;strokeColor=light-dark(#000000,#000000);align=center;strokeWidth=2;fontStyle=1;exitX=1;exitY=0.5;exitDx=0;exitDy=0;entryX=0;entryY=0.5;entryDx=0;entryDy=0;" parent="1" source="-ZWm0wnhT3yQVJ8AxPes-17" target="-ZWm0wnhT3yQVJ8AxPes-21" edge="1">
          <mxGeometry width="160" relative="1" as="geometry">
            <mxPoint x="1392" y="-86" as="sourcePoint" />
            <mxPoint x="1640" y="10" as="targetPoint" />
          </mxGeometry>
        </mxCell>
        <mxCell id="--2P5zktpjVNsyAi5NLY-43" value="&lt;div style=&quot;&quot;&gt;&lt;span style=&quot;color: light-dark(rgb(0, 0, 0), rgb(0, 0, 0)); background-color: light-dark(rgb(255, 255, 255), rgb(255, 255, 255));&quot;&gt;&lt;font face=&quot;Helvetica&quot;&gt;&amp;lt;&amp;lt; include &amp;gt;&amp;gt;&lt;/font&gt;&lt;/span&gt;&lt;/div&gt;" style="endArrow=open;endSize=12;dashed=1;html=1;rounded=0;strokeColor=light-dark(#000000,#000000);align=center;strokeWidth=2;fontStyle=1;exitX=1;exitY=0.5;exitDx=0;exitDy=0;entryX=0;entryY=0.5;entryDx=0;entryDy=0;" parent="1" source="-ZWm0wnhT3yQVJ8AxPes-15" target="-ZWm0wnhT3yQVJ8AxPes-21" edge="1">
          <mxGeometry x="0.0011" width="160" relative="1" as="geometry">
            <mxPoint x="1392" y="-86" as="sourcePoint" />
            <mxPoint x="1600" y="170" as="targetPoint" />
            <mxPoint as="offset" />
          </mxGeometry>
        </mxCell>
        <mxCell id="--2P5zktpjVNsyAi5NLY-47" value="" style="endArrow=none;html=1;rounded=0;strokeColor=light-dark(#000000,#000000);strokeWidth=2;fontStyle=1;entryX=1;entryY=0.5;entryDx=0;entryDy=0;exitX=0.5;exitY=0.5;exitDx=0;exitDy=0;exitPerimeter=0;" parent="1" source="--2P5zktpjVNsyAi5NLY-10" target="--2P5zktpjVNsyAi5NLY-25" edge="1">
          <mxGeometry width="50" height="50" relative="1" as="geometry">
            <mxPoint x="820" y="90" as="sourcePoint" />
            <mxPoint x="1145" y="-189" as="targetPoint" />
          </mxGeometry>
        </mxCell>
        <mxCell id="--2P5zktpjVNsyAi5NLY-49" value="" style="endArrow=none;html=1;rounded=0;strokeColor=light-dark(#000000,#000000);strokeWidth=2;fontStyle=1;entryX=1;entryY=0.5;entryDx=0;entryDy=0;exitX=0.5;exitY=0.5;exitDx=0;exitDy=0;exitPerimeter=0;" parent="1" source="--2P5zktpjVNsyAi5NLY-10" target="--2P5zktpjVNsyAi5NLY-29" edge="1">
          <mxGeometry width="50" height="50" relative="1" as="geometry">
            <mxPoint x="2315" y="30" as="sourcePoint" />
            <mxPoint x="2010" y="10" as="targetPoint" />
          </mxGeometry>
        </mxCell>
        <mxCell id="--2P5zktpjVNsyAi5NLY-55" value="" style="endArrow=none;html=1;rounded=0;strokeColor=light-dark(#000000,#000000);strokeWidth=2;fontStyle=1;exitX=0.5;exitY=0.5;exitDx=0;exitDy=0;exitPerimeter=0;entryX=1;entryY=0.5;entryDx=0;entryDy=0;" parent="1" source="--2P5zktpjVNsyAi5NLY-10" target="--2P5zktpjVNsyAi5NLY-18" edge="1">
          <mxGeometry width="50" height="50" relative="1" as="geometry">
            <mxPoint x="2315" y="30" as="sourcePoint" />
            <mxPoint x="1810" y="110" as="targetPoint" />
          </mxGeometry>
        </mxCell>
        <mxCell id="--2P5zktpjVNsyAi5NLY-25" value="&lt;font style=&quot;color: light-dark(rgb(0, 0, 0), rgb(0, 0, 0));&quot;&gt;&lt;span style=&quot;font-size: 16px;&quot;&gt;Quản Lý Tài Khoản Cá Nhân&lt;/span&gt;&lt;/font&gt;" style="ellipse;whiteSpace=wrap;html=1;fillColor=none;strokeColor=light-dark(#000000,#000000);strokeWidth=2;fontStyle=1" parent="1" vertex="1">
          <mxGeometry x="1730" y="20" width="240" height="60" as="geometry" />
        </mxCell>
        <mxCell id="--2P5zktpjVNsyAi5NLY-61" value="" style="endArrow=none;html=1;rounded=0;strokeColor=light-dark(#000000,#000000);strokeWidth=2;fontStyle=1;exitX=0.5;exitY=0.5;exitDx=0;exitDy=0;exitPerimeter=0;" parent="1" source="--2P5zktpjVNsyAi5NLY-10" target="--2P5zktpjVNsyAi5NLY-30" edge="1">
          <mxGeometry width="50" height="50" relative="1" as="geometry">
            <mxPoint x="2315" y="30" as="sourcePoint" />
            <mxPoint x="2165" y="-190" as="targetPoint" />
          </mxGeometry>
        </mxCell>
        <mxCell id="--2P5zktpjVNsyAi5NLY-62" value="" style="endArrow=none;html=1;rounded=0;strokeColor=light-dark(#000000,#000000);strokeWidth=2;fontStyle=1;exitX=0.5;exitY=0.5;exitDx=0;exitDy=0;exitPerimeter=0;entryX=1;entryY=0.5;entryDx=0;entryDy=0;" parent="1" source="--2P5zktpjVNsyAi5NLY-10" target="--2P5zktpjVNsyAi5NLY-31" edge="1">
          <mxGeometry width="50" height="50" relative="1" as="geometry">
            <mxPoint x="2315" y="30" as="sourcePoint" />
            <mxPoint x="2287" y="310" as="targetPoint" />
          </mxGeometry>
        </mxCell>
        <mxCell id="--2P5zktpjVNsyAi5NLY-68" value="&lt;div style=&quot;&quot;&gt;&lt;span style=&quot;color: light-dark(rgb(0, 0, 0), rgb(0, 0, 0)); background-color: light-dark(rgb(255, 255, 255), rgb(255, 255, 255));&quot;&gt;&lt;font face=&quot;Helvetica&quot;&gt;&amp;lt;&amp;lt; include &amp;gt;&amp;gt;&lt;/font&gt;&lt;/span&gt;&lt;/div&gt;" style="endArrow=open;endSize=12;dashed=1;html=1;rounded=0;strokeColor=light-dark(#000000,#000000);align=center;strokeWidth=2;fontStyle=1;exitX=0;exitY=0.5;exitDx=0;exitDy=0;entryX=0.955;entryY=0.688;entryDx=0;entryDy=0;entryPerimeter=0;" parent="1" source="--2P5zktpjVNsyAi5NLY-25" target="-ZWm0wnhT3yQVJ8AxPes-21" edge="1">
          <mxGeometry width="160" relative="1" as="geometry">
            <mxPoint x="1825" y="30" as="sourcePoint" />
            <mxPoint x="1710" y="60" as="targetPoint" />
          </mxGeometry>
        </mxCell>
        <mxCell id="-ZWm0wnhT3yQVJ8AxPes-21" value="&lt;font style=&quot;color: light-dark(rgb(0, 0, 0), rgb(0, 0, 0));&quot;&gt;&lt;span style=&quot;font-size: 16px;&quot;&gt;Đăng Nhập&lt;/span&gt;&lt;/font&gt;" style="ellipse;whiteSpace=wrap;html=1;fillColor=none;strokeColor=light-dark(#000000,#000000);strokeWidth=2;fontStyle=1" parent="1" vertex="1">
          <mxGeometry x="1420" y="-70" width="170" height="60" as="geometry" />
        </mxCell>
        <mxCell id="8gC5yaoevOu7xBFy1y-v-3" style="edgeStyle=orthogonalEdgeStyle;rounded=0;orthogonalLoop=1;jettySize=auto;html=1;exitX=0.5;exitY=1;exitDx=0;exitDy=0;" parent="1" source="--2P5zktpjVNsyAi5NLY-29" target="--2P5zktpjVNsyAi5NLY-29" edge="1">
          <mxGeometry relative="1" as="geometry" />
        </mxCell>
        <mxCell id="gilO_9OsVxvAeixmcCpg-1" value="&lt;font style=&quot;color: light-dark(rgb(0, 0, 0), rgb(0, 0, 0)); font-size: 16px;&quot;&gt;Quản lý sản phẩm&lt;/font&gt;" style="ellipse;whiteSpace=wrap;html=1;fillColor=none;strokeColor=light-dark(#000000,#000000);strokeWidth=2;fontStyle=1" parent="1" vertex="1">
          <mxGeometry x="890" y="-150" width="260" height="60" as="geometry" />
        </mxCell>
        <mxCell id="gilO_9OsVxvAeixmcCpg-4" value="" style="endArrow=none;html=1;rounded=0;strokeColor=light-dark(#000000,#000000);entryX=0;entryY=0.5;entryDx=0;entryDy=0;strokeWidth=2;fontStyle=1" parent="1" source="-ZWm0wnhT3yQVJ8AxPes-6" target="gilO_9OsVxvAeixmcCpg-1" edge="1">
          <mxGeometry width="50" height="50" relative="1" as="geometry">
            <mxPoint x="870" y="77" as="sourcePoint" />
            <mxPoint x="1020" y="50" as="targetPoint" />
          </mxGeometry>
        </mxCell>
        <mxCell id="gilO_9OsVxvAeixmcCpg-6" value="&lt;div style=&quot;&quot;&gt;&lt;span style=&quot;color: light-dark(rgb(0, 0, 0), rgb(0, 0, 0)); background-color: light-dark(rgb(255, 255, 255), rgb(255, 255, 255));&quot;&gt;&lt;font face=&quot;Helvetica&quot;&gt;&amp;lt;&amp;lt; include &amp;gt;&amp;gt;&lt;/font&gt;&lt;/span&gt;&lt;/div&gt;" style="endArrow=open;endSize=12;dashed=1;html=1;rounded=0;strokeColor=light-dark(#000000,#000000);align=center;strokeWidth=2;fontStyle=1;exitX=1;exitY=0.5;exitDx=0;exitDy=0;entryX=0;entryY=0.5;entryDx=0;entryDy=0;" parent="1" source="gilO_9OsVxvAeixmcCpg-1" target="-ZWm0wnhT3yQVJ8AxPes-21" edge="1">
          <mxGeometry width="160" relative="1" as="geometry">
            <mxPoint x="1280" y="260" as="sourcePoint" />
            <mxPoint x="1370" y="50" as="targetPoint" />
          </mxGeometry>
        </mxCell>
        <mxCell id="--2P5zktpjVNsyAi5NLY-31" value="&lt;font style=&quot;&quot;&gt;&lt;span style=&quot;font-size: 16px;&quot;&gt;Gửi phản hồi / liên hệ&amp;nbsp;&lt;/span&gt;&lt;/font&gt;" style="ellipse;whiteSpace=wrap;html=1;fillColor=none;strokeColor=light-dark(#000000,#000000);strokeWidth=2;fontStyle=1;fontColor=light-dark(#000000,#000000);" parent="1" vertex="1">
          <mxGeometry x="1730" y="220" width="240" height="60" as="geometry" />
        </mxCell>
        <mxCell id="izpkNmqfASUITOl6WTfw-2" value="&lt;span style=&quot;font-size: 16px;&quot;&gt;Quản lý sản phẩm v2 ( sp biến thể )&lt;/span&gt;" style="ellipse;whiteSpace=wrap;html=1;fillColor=none;strokeColor=light-dark(#000000,#000000);strokeWidth=2;fontStyle=1" parent="1" vertex="1">
          <mxGeometry x="870" y="-50" width="300" height="60" as="geometry" />
        </mxCell>
        <mxCell id="izpkNmqfASUITOl6WTfw-3" value="&lt;font style=&quot;color: light-dark(rgb(0, 0, 0), rgb(0, 0, 0)); font-size: 16px;&quot;&gt;Quản lý chi nhánh&lt;/font&gt;" style="ellipse;whiteSpace=wrap;html=1;fillColor=none;strokeColor=light-dark(#000000,#000000);strokeWidth=2;fontStyle=1" parent="1" vertex="1">
          <mxGeometry x="905" y="50" width="260" height="60" as="geometry" />
        </mxCell>
        <mxCell id="izpkNmqfASUITOl6WTfw-4" value="&lt;font style=&quot;color: light-dark(rgb(0, 0, 0), rgb(0, 0, 0)); font-size: 16px;&quot;&gt;Thống kê &amp;amp; Báo cáo&lt;/font&gt;" style="ellipse;whiteSpace=wrap;html=1;fillColor=none;strokeColor=light-dark(#000000,#000000);strokeWidth=2;fontStyle=1" parent="1" vertex="1">
          <mxGeometry x="900" y="150" width="260" height="60" as="geometry" />
        </mxCell>
        <mxCell id="izpkNmqfASUITOl6WTfw-5" value="&lt;font style=&quot;color: light-dark(rgb(0, 0, 0), rgb(0, 0, 0)); font-size: 16px;&quot;&gt;Quản lý Feedback&lt;/font&gt;" style="ellipse;whiteSpace=wrap;html=1;fillColor=none;strokeColor=light-dark(#000000,#000000);strokeWidth=2;fontStyle=1" parent="1" vertex="1">
          <mxGeometry x="890" y="260" width="260" height="60" as="geometry" />
        </mxCell>
        <mxCell id="izpkNmqfASUITOl6WTfw-6" value="" style="endArrow=none;html=1;rounded=0;strokeColor=light-dark(#000000,#000000);entryX=0;entryY=0.5;entryDx=0;entryDy=0;strokeWidth=2;fontStyle=1" parent="1" source="-ZWm0wnhT3yQVJ8AxPes-6" target="izpkNmqfASUITOl6WTfw-2" edge="1">
          <mxGeometry width="50" height="50" relative="1" as="geometry">
            <mxPoint x="780" y="-50" as="sourcePoint" />
            <mxPoint x="990" y="-120" as="targetPoint" />
          </mxGeometry>
        </mxCell>
        <mxCell id="izpkNmqfASUITOl6WTfw-7" value="" style="endArrow=none;html=1;rounded=0;strokeColor=light-dark(#000000,#000000);entryX=0;entryY=0.5;entryDx=0;entryDy=0;strokeWidth=2;fontStyle=1" parent="1" source="-ZWm0wnhT3yQVJ8AxPes-6" target="izpkNmqfASUITOl6WTfw-3" edge="1">
          <mxGeometry width="50" height="50" relative="1" as="geometry">
            <mxPoint x="750" y="-67" as="sourcePoint" />
            <mxPoint x="975" y="-30" as="targetPoint" />
          </mxGeometry>
        </mxCell>
        <mxCell id="izpkNmqfASUITOl6WTfw-8" value="" style="endArrow=none;html=1;rounded=0;strokeColor=light-dark(#000000,#000000);entryX=0;entryY=0.5;entryDx=0;entryDy=0;strokeWidth=2;fontStyle=1" parent="1" source="-ZWm0wnhT3yQVJ8AxPes-6" target="izpkNmqfASUITOl6WTfw-4" edge="1">
          <mxGeometry width="50" height="50" relative="1" as="geometry">
            <mxPoint x="750" y="-61" as="sourcePoint" />
            <mxPoint x="985" y="80" as="targetPoint" />
          </mxGeometry>
        </mxCell>
        <mxCell id="izpkNmqfASUITOl6WTfw-9" value="&lt;div style=&quot;&quot;&gt;&lt;span style=&quot;color: light-dark(rgb(0, 0, 0), rgb(0, 0, 0)); background-color: light-dark(rgb(255, 255, 255), rgb(255, 255, 255));&quot;&gt;&lt;font face=&quot;Helvetica&quot;&gt;&amp;lt;&amp;lt; include &amp;gt;&amp;gt;&lt;/font&gt;&lt;/span&gt;&lt;/div&gt;" style="endArrow=open;endSize=12;dashed=1;html=1;rounded=0;strokeColor=light-dark(#000000,#000000);align=center;strokeWidth=2;fontStyle=1;exitX=0.985;exitY=0.57;exitDx=0;exitDy=0;exitPerimeter=0;entryX=0.018;entryY=0.684;entryDx=0;entryDy=0;entryPerimeter=0;" parent="1" source="izpkNmqfASUITOl6WTfw-2" target="-ZWm0wnhT3yQVJ8AxPes-21" edge="1">
          <mxGeometry width="160" relative="1" as="geometry">
            <mxPoint x="1250" y="-120" as="sourcePoint" />
            <mxPoint x="1520" y="-90" as="targetPoint" />
          </mxGeometry>
        </mxCell>
        <mxCell id="izpkNmqfASUITOl6WTfw-10" value="&lt;div style=&quot;&quot;&gt;&lt;span style=&quot;color: light-dark(rgb(0, 0, 0), rgb(0, 0, 0)); background-color: light-dark(rgb(255, 255, 255), rgb(255, 255, 255));&quot;&gt;&lt;font face=&quot;Helvetica&quot;&gt;&amp;lt;&amp;lt; include &amp;gt;&amp;gt;&lt;/font&gt;&lt;/span&gt;&lt;/div&gt;" style="endArrow=open;endSize=12;dashed=1;html=1;rounded=0;strokeColor=light-dark(#000000,#000000);align=center;strokeWidth=2;fontStyle=1;exitX=1;exitY=0.5;exitDx=0;exitDy=0;entryX=0.028;entryY=0.641;entryDx=0;entryDy=0;entryPerimeter=0;" parent="1" source="izpkNmqfASUITOl6WTfw-3" target="-ZWm0wnhT3yQVJ8AxPes-21" edge="1">
          <mxGeometry width="160" relative="1" as="geometry">
            <mxPoint x="1271" y="-26" as="sourcePoint" />
            <mxPoint x="1555" y="-110" as="targetPoint" />
          </mxGeometry>
        </mxCell>
        <mxCell id="izpkNmqfASUITOl6WTfw-11" value="&lt;div style=&quot;&quot;&gt;&lt;span style=&quot;color: light-dark(rgb(0, 0, 0), rgb(0, 0, 0)); background-color: light-dark(rgb(255, 255, 255), rgb(255, 255, 255));&quot;&gt;&lt;font face=&quot;Helvetica&quot;&gt;&amp;lt;&amp;lt; include &amp;gt;&amp;gt;&lt;/font&gt;&lt;/span&gt;&lt;/div&gt;" style="endArrow=open;endSize=12;dashed=1;html=1;rounded=0;strokeColor=light-dark(#000000,#000000);align=center;strokeWidth=2;fontStyle=1;exitX=1;exitY=0.5;exitDx=0;exitDy=0;entryX=0.119;entryY=0.869;entryDx=0;entryDy=0;entryPerimeter=0;" parent="1" source="izpkNmqfASUITOl6WTfw-4" target="-ZWm0wnhT3yQVJ8AxPes-21" edge="1">
          <mxGeometry width="160" relative="1" as="geometry">
            <mxPoint x="1230" y="90" as="sourcePoint" />
            <mxPoint x="1540" y="-122" as="targetPoint" />
          </mxGeometry>
        </mxCell>
        <mxCell id="izpkNmqfASUITOl6WTfw-13" value="" style="endArrow=none;html=1;rounded=0;strokeColor=light-dark(#000000,#000000);entryX=0;entryY=0.5;entryDx=0;entryDy=0;strokeWidth=2;fontStyle=1" parent="1" source="-ZWm0wnhT3yQVJ8AxPes-6" target="izpkNmqfASUITOl6WTfw-5" edge="1">
          <mxGeometry width="50" height="50" relative="1" as="geometry">
            <mxPoint x="750" y="-54" as="sourcePoint" />
            <mxPoint x="975" y="190" as="targetPoint" />
          </mxGeometry>
        </mxCell>
        <mxCell id="izpkNmqfASUITOl6WTfw-16" value="&lt;div style=&quot;&quot;&gt;&lt;span style=&quot;color: light-dark(rgb(0, 0, 0), rgb(0, 0, 0)); background-color: light-dark(rgb(255, 255, 255), rgb(255, 255, 255));&quot;&gt;&lt;font face=&quot;Helvetica&quot;&gt;&amp;lt;&amp;lt; include &amp;gt;&amp;gt;&lt;/font&gt;&lt;/span&gt;&lt;/div&gt;" style="endArrow=open;endSize=12;dashed=1;html=1;rounded=0;strokeColor=light-dark(#000000,#000000);align=center;strokeWidth=2;fontStyle=1;exitX=0;exitY=0.5;exitDx=0;exitDy=0;entryX=0.613;entryY=0.955;entryDx=0;entryDy=0;entryPerimeter=0;" parent="1" source="--2P5zktpjVNsyAi5NLY-31" target="-ZWm0wnhT3yQVJ8AxPes-21" edge="1">
          <mxGeometry width="160" relative="1" as="geometry">
            <mxPoint x="1760" y="90" as="sourcePoint" />
            <mxPoint x="1565" y="-6" as="targetPoint" />
          </mxGeometry>
        </mxCell>
        <mxCell id="izpkNmqfASUITOl6WTfw-17" value="&lt;font style=&quot;color: light-dark(rgb(0, 0, 0), rgb(0, 0, 0));&quot;&gt;&lt;span style=&quot;font-size: 16px;&quot;&gt;Mua sản phẩm&amp;nbsp;&lt;/span&gt;&lt;/font&gt;" style="ellipse;whiteSpace=wrap;html=1;fillColor=none;strokeColor=light-dark(#000000,#000000);strokeWidth=2;fontStyle=1" parent="1" vertex="1">
          <mxGeometry x="1820" y="-90" width="240" height="60" as="geometry" />
        </mxCell>
        <mxCell id="izpkNmqfASUITOl6WTfw-18" value="" style="endArrow=none;html=1;rounded=0;strokeColor=light-dark(#000000,#000000);strokeWidth=2;fontStyle=1;exitX=0.5;exitY=0.5;exitDx=0;exitDy=0;exitPerimeter=0;entryX=1;entryY=0.5;entryDx=0;entryDy=0;" parent="1" source="--2P5zktpjVNsyAi5NLY-10" target="izpkNmqfASUITOl6WTfw-17" edge="1">
          <mxGeometry width="50" height="50" relative="1" as="geometry">
            <mxPoint x="2215" y="90" as="sourcePoint" />
            <mxPoint x="1930" y="-80" as="targetPoint" />
          </mxGeometry>
        </mxCell>
        <mxCell id="izpkNmqfASUITOl6WTfw-19" value="&lt;font style=&quot;color: light-dark(rgb(0, 0, 0), rgb(0, 0, 0));&quot;&gt;&lt;span style=&quot;font-size: 16px;&quot;&gt;Xem chi tiết sản phẩm&amp;nbsp;&lt;/span&gt;&lt;/font&gt;" style="ellipse;whiteSpace=wrap;html=1;fillColor=none;strokeColor=light-dark(#000000,#000000);strokeWidth=2;fontStyle=1" parent="1" vertex="1">
          <mxGeometry x="1630" y="-500" width="240" height="60" as="geometry" />
        </mxCell>
        <mxCell id="izpkNmqfASUITOl6WTfw-20" value="&lt;div style=&quot;&quot;&gt;&lt;span style=&quot;color: light-dark(rgb(0, 0, 0), rgb(0, 0, 0)); background-color: light-dark(rgb(255, 255, 255), rgb(255, 255, 255));&quot;&gt;&lt;font face=&quot;Helvetica&quot;&gt;&amp;lt;&amp;lt;extends&amp;gt;&amp;gt;&lt;/font&gt;&lt;/span&gt;&lt;/div&gt;" style="endArrow=open;endSize=12;dashed=1;html=1;rounded=0;strokeColor=light-dark(#000000,#000000);align=center;strokeWidth=2;fontStyle=1;entryX=0.336;entryY=0.06;entryDx=0;entryDy=0;entryPerimeter=0;" parent="1" source="izpkNmqfASUITOl6WTfw-19" target="--2P5zktpjVNsyAi5NLY-29" edge="1">
          <mxGeometry width="160" relative="1" as="geometry">
            <mxPoint x="1927" y="-267" as="sourcePoint" />
            <mxPoint x="1790" y="-190" as="targetPoint" />
          </mxGeometry>
        </mxCell>
        <mxCell id="izpkNmqfASUITOl6WTfw-21" value="&lt;font style=&quot;font-size: 16px;&quot;&gt;&amp;nbsp;Lọc theo giới tính, size, màu, tầm giá&lt;/font&gt;" style="ellipse;whiteSpace=wrap;html=1;fillColor=none;strokeColor=light-dark(#000000,#000000);strokeWidth=2;fontStyle=1" parent="1" vertex="1">
          <mxGeometry x="1390" y="-420" width="300" height="60" as="geometry" />
        </mxCell>
        <mxCell id="izpkNmqfASUITOl6WTfw-22" value="&lt;div style=&quot;&quot;&gt;&lt;span style=&quot;color: light-dark(rgb(0, 0, 0), rgb(0, 0, 0)); background-color: light-dark(rgb(255, 255, 255), rgb(255, 255, 255));&quot;&gt;&lt;font face=&quot;Helvetica&quot;&gt;&amp;lt;&amp;lt;extends&amp;gt;&amp;gt;&lt;/font&gt;&lt;/span&gt;&lt;/div&gt;" style="endArrow=open;endSize=12;dashed=1;html=1;rounded=0;strokeColor=light-dark(#000000,#000000);align=center;strokeWidth=2;fontStyle=1;entryX=0;entryY=0.5;entryDx=0;entryDy=0;exitX=0.966;exitY=0.311;exitDx=0;exitDy=0;exitPerimeter=0;" parent="1" source="izpkNmqfASUITOl6WTfw-21" target="--2P5zktpjVNsyAi5NLY-29" edge="1">
          <mxGeometry width="160" relative="1" as="geometry">
            <mxPoint x="1707" y="-331" as="sourcePoint" />
            <mxPoint x="1821" y="-206" as="targetPoint" />
          </mxGeometry>
        </mxCell>
        <mxCell id="izpkNmqfASUITOl6WTfw-24" value="&lt;font style=&quot;color: light-dark(rgb(0, 0, 0), rgb(0, 0, 0));&quot;&gt;&lt;span style=&quot;font-size: 16px;&quot;&gt;Thêm giỏ hàng&lt;/span&gt;&lt;/font&gt;" style="ellipse;whiteSpace=wrap;html=1;fillColor=none;strokeColor=light-dark(#000000,#000000);strokeWidth=2;fontStyle=1" parent="1" vertex="1">
          <mxGeometry x="1840" y="-190" width="240" height="60" as="geometry" />
        </mxCell>
        <mxCell id="izpkNmqfASUITOl6WTfw-25" value="" style="endArrow=none;html=1;rounded=0;strokeColor=light-dark(#000000,#000000);strokeWidth=2;fontStyle=1;entryX=1;entryY=0.5;entryDx=0;entryDy=0;exitX=0.5;exitY=0.5;exitDx=0;exitDy=0;exitPerimeter=0;" parent="1" source="--2P5zktpjVNsyAi5NLY-10" target="izpkNmqfASUITOl6WTfw-24" edge="1">
          <mxGeometry width="50" height="50" relative="1" as="geometry">
            <mxPoint x="2210" y="80" as="sourcePoint" />
            <mxPoint x="1990" y="-50" as="targetPoint" />
          </mxGeometry>
        </mxCell>
        <mxCell id="izpkNmqfASUITOl6WTfw-26" value="&lt;span style=&quot;font-size: 16px;&quot;&gt;Thanh toán&lt;/span&gt;" style="ellipse;whiteSpace=wrap;html=1;fillColor=none;strokeColor=light-dark(#000000,#000000);strokeWidth=2;fontStyle=1" parent="1" vertex="1">
          <mxGeometry x="1510" y="-230" width="240" height="60" as="geometry" />
        </mxCell>
        <mxCell id="izpkNmqfASUITOl6WTfw-27" value="&lt;div style=&quot;&quot;&gt;&lt;span style=&quot;color: light-dark(rgb(0, 0, 0), rgb(0, 0, 0)); background-color: light-dark(rgb(255, 255, 255), rgb(255, 255, 255));&quot;&gt;&lt;font face=&quot;Helvetica&quot;&gt;&amp;lt;&amp;lt;extends&amp;gt;&amp;gt;&lt;/font&gt;&lt;/span&gt;&lt;/div&gt;" style="endArrow=open;endSize=12;dashed=1;html=1;rounded=0;strokeColor=light-dark(#000000,#000000);align=center;strokeWidth=2;fontStyle=1;" parent="1" source="izpkNmqfASUITOl6WTfw-26" target="izpkNmqfASUITOl6WTfw-24" edge="1">
          <mxGeometry width="160" relative="1" as="geometry">
            <mxPoint x="1690" y="-391" as="sourcePoint" />
            <mxPoint x="1750" y="-270" as="targetPoint" />
          </mxGeometry>
        </mxCell>
        <mxCell id="izpkNmqfASUITOl6WTfw-28" value="&lt;div style=&quot;&quot;&gt;&lt;span style=&quot;color: light-dark(rgb(0, 0, 0), rgb(0, 0, 0)); background-color: light-dark(rgb(255, 255, 255), rgb(255, 255, 255));&quot;&gt;&lt;font face=&quot;Helvetica&quot;&gt;&amp;lt;&amp;lt;extends&amp;gt;&amp;gt;&lt;/font&gt;&lt;/span&gt;&lt;/div&gt;" style="endArrow=open;endSize=12;dashed=1;html=1;rounded=0;strokeColor=light-dark(#000000,#000000);align=center;strokeWidth=2;fontStyle=1;entryX=0;entryY=0.5;entryDx=0;entryDy=0;exitX=0.625;exitY=0.941;exitDx=0;exitDy=0;exitPerimeter=0;" parent="1" source="izpkNmqfASUITOl6WTfw-26" target="izpkNmqfASUITOl6WTfw-17" edge="1">
          <mxGeometry width="160" relative="1" as="geometry">
            <mxPoint x="1690" y="-391" as="sourcePoint" />
            <mxPoint x="1750" y="-270" as="targetPoint" />
          </mxGeometry>
        </mxCell>
        <mxCell id="izpkNmqfASUITOl6WTfw-31" value="&lt;div style=&quot;&quot;&gt;&lt;span style=&quot;color: light-dark(rgb(0, 0, 0), rgb(0, 0, 0)); background-color: light-dark(rgb(255, 255, 255), rgb(255, 255, 255));&quot;&gt;&lt;font face=&quot;Helvetica&quot;&gt;&amp;lt;&amp;lt; include &amp;gt;&amp;gt;&lt;/font&gt;&lt;/span&gt;&lt;/div&gt;" style="endArrow=open;endSize=12;dashed=1;html=1;rounded=0;strokeColor=light-dark(#000000,#000000);align=center;strokeWidth=2;fontStyle=1;entryX=0.5;entryY=0;entryDx=0;entryDy=0;" parent="1" source="izpkNmqfASUITOl6WTfw-26" target="-ZWm0wnhT3yQVJ8AxPes-21" edge="1">
          <mxGeometry width="160" relative="1" as="geometry">
            <mxPoint x="1740" y="60" as="sourcePoint" />
            <mxPoint x="1592" y="-19" as="targetPoint" />
          </mxGeometry>
        </mxCell>
        <mxCell id="izpkNmqfASUITOl6WTfw-33" value="&lt;div style=&quot;&quot;&gt;&lt;span style=&quot;color: light-dark(rgb(0, 0, 0), rgb(0, 0, 0)); background-color: light-dark(rgb(255, 255, 255), rgb(255, 255, 255));&quot;&gt;&lt;font face=&quot;Helvetica&quot;&gt;&amp;lt;&amp;lt; include &amp;gt;&amp;gt;&lt;/font&gt;&lt;/span&gt;&lt;/div&gt;" style="endArrow=open;endSize=12;dashed=1;html=1;rounded=0;strokeColor=light-dark(#000000,#000000);align=center;strokeWidth=2;fontStyle=1;entryX=0.387;entryY=0.955;entryDx=0;entryDy=0;entryPerimeter=0;exitX=1;exitY=0.5;exitDx=0;exitDy=0;" parent="1" source="izpkNmqfASUITOl6WTfw-5" target="-ZWm0wnhT3yQVJ8AxPes-21" edge="1">
          <mxGeometry width="160" relative="1" as="geometry">
            <mxPoint x="1170" y="190" as="sourcePoint" />
            <mxPoint x="1450" y="-8" as="targetPoint" />
          </mxGeometry>
        </mxCell>
        <mxCell id="izpkNmqfASUITOl6WTfw-34" value="&lt;font style=&quot;color: light-dark(rgb(0, 0, 0), rgb(0, 0, 0));&quot;&gt;&lt;span style=&quot;font-size: 16px;&quot;&gt;Đăng Nhập&lt;/span&gt;&lt;/font&gt;" style="ellipse;whiteSpace=wrap;html=1;fillColor=none;strokeColor=light-dark(#000000,#000000);strokeWidth=2;fontStyle=1" parent="1" vertex="1">
          <mxGeometry x="1135" y="657.5" width="150" height="60" as="geometry" />
        </mxCell>
        <mxCell id="izpkNmqfASUITOl6WTfw-35" value="&lt;font style=&quot;color: light-dark(rgb(0, 0, 0), rgb(0, 0, 0));&quot;&gt;&lt;span style=&quot;font-size: 16px;&quot;&gt;Xem danh sách người dùng&amp;nbsp;&lt;/span&gt;&lt;/font&gt;" style="ellipse;whiteSpace=wrap;html=1;fillColor=none;strokeColor=light-dark(#000000,#000000);strokeWidth=2;fontStyle=1" parent="1" vertex="1">
          <mxGeometry x="1075" y="797.5" width="290" height="60" as="geometry" />
        </mxCell>
        <mxCell id="izpkNmqfASUITOl6WTfw-36" value="&lt;font style=&quot;color: light-dark(rgb(0, 0, 0), rgb(0, 0, 0));&quot;&gt;Quản trị viên&lt;/font&gt;" style="shape=umlActor;verticalLabelPosition=bottom;verticalAlign=top;html=1;outlineConnect=0;strokeColor=light-dark(#000000,#000000);fillStyle=solid;fillColor=none;strokeWidth=2;fontStyle=1" parent="1" vertex="1">
          <mxGeometry x="885" y="787.5" width="30" height="70" as="geometry" />
        </mxCell>
        <mxCell id="izpkNmqfASUITOl6WTfw-37" value="&lt;font style=&quot;color: light-dark(rgb(0, 0, 0), rgb(0, 0, 0));&quot;&gt;&lt;span style=&quot;font-size: 16px;&quot;&gt;Sửa thông tin người dùng&amp;nbsp;&lt;/span&gt;&lt;/font&gt;" style="ellipse;whiteSpace=wrap;html=1;fillColor=none;strokeColor=light-dark(#000000,#000000);strokeWidth=2;fontStyle=1" parent="1" vertex="1">
          <mxGeometry x="1530" y="797.5" width="260" height="60" as="geometry" />
        </mxCell>
        <mxCell id="izpkNmqfASUITOl6WTfw-38" value="&lt;font style=&quot;color: light-dark(rgb(0, 0, 0), rgb(0, 0, 0));&quot;&gt;&lt;span style=&quot;font-size: 16px;&quot;&gt;Thêm người dùng&lt;/span&gt;&lt;/font&gt;" style="ellipse;whiteSpace=wrap;html=1;fillColor=none;strokeColor=light-dark(#000000,#000000);strokeWidth=2;fontStyle=1" parent="1" vertex="1">
          <mxGeometry x="1070" y="957.5" width="260" height="60" as="geometry" />
        </mxCell>
        <mxCell id="izpkNmqfASUITOl6WTfw-39" value="&lt;font style=&quot;color: light-dark(rgb(0, 0, 0), rgb(0, 0, 0));&quot;&gt;&lt;span style=&quot;font-size: 16px;&quot;&gt;Tìm kiếm&amp;nbsp;&lt;/span&gt;&lt;/font&gt;" style="ellipse;whiteSpace=wrap;html=1;fillColor=none;strokeColor=light-dark(#000000,#000000);strokeWidth=2;fontStyle=1" parent="1" vertex="1">
          <mxGeometry x="1535" y="947.5" width="260" height="60" as="geometry" />
        </mxCell>
        <mxCell id="izpkNmqfASUITOl6WTfw-40" value="&lt;div style=&quot;&quot;&gt;&lt;span style=&quot;color: light-dark(rgb(0, 0, 0), rgb(0, 0, 0)); background-color: light-dark(rgb(255, 255, 255), rgb(255, 255, 255));&quot;&gt;&lt;font face=&quot;Helvetica&quot;&gt;&amp;lt;&amp;lt; include &amp;gt;&amp;gt;&lt;/font&gt;&lt;/span&gt;&lt;/div&gt;" style="endArrow=open;endSize=12;dashed=1;html=1;rounded=0;strokeColor=light-dark(#000000,#000000);align=center;strokeWidth=2;fontStyle=1;entryX=0.5;entryY=1;entryDx=0;entryDy=0;exitX=0.469;exitY=-0.03;exitDx=0;exitDy=0;exitPerimeter=0;" parent="1" source="izpkNmqfASUITOl6WTfw-35" target="izpkNmqfASUITOl6WTfw-34" edge="1">
          <mxGeometry width="160" relative="1" as="geometry">
            <mxPoint x="1175" y="167.5" as="sourcePoint" />
            <mxPoint x="1175" y="97.5" as="targetPoint" />
          </mxGeometry>
        </mxCell>
        <mxCell id="izpkNmqfASUITOl6WTfw-41" value="&lt;div style=&quot;&quot;&gt;&lt;span style=&quot;color: light-dark(rgb(0, 0, 0), rgb(0, 0, 0)); background-color: light-dark(rgb(255, 255, 255), rgb(255, 255, 255));&quot;&gt;&lt;font face=&quot;Helvetica&quot;&gt;&amp;lt;&amp;lt;extends&amp;gt;&amp;gt;&lt;/font&gt;&lt;/span&gt;&lt;/div&gt;" style="endArrow=open;endSize=12;dashed=1;html=1;rounded=0;strokeColor=light-dark(#000000,#000000);align=center;exitX=0.536;exitY=0.054;exitDx=0;exitDy=0;strokeWidth=2;fontStyle=1;entryX=0.468;entryY=0.945;entryDx=0;entryDy=0;exitPerimeter=0;entryPerimeter=0;" parent="1" source="izpkNmqfASUITOl6WTfw-38" target="izpkNmqfASUITOl6WTfw-35" edge="1">
          <mxGeometry width="160" relative="1" as="geometry">
            <mxPoint x="1175" y="307.5" as="sourcePoint" />
            <mxPoint x="1175" y="227.5" as="targetPoint" />
          </mxGeometry>
        </mxCell>
        <mxCell id="izpkNmqfASUITOl6WTfw-42" value="&lt;div style=&quot;&quot;&gt;&lt;span style=&quot;color: light-dark(rgb(0, 0, 0), rgb(0, 0, 0)); background-color: light-dark(rgb(255, 255, 255), rgb(255, 255, 255));&quot;&gt;&lt;font face=&quot;Helvetica&quot;&gt;&amp;lt;&amp;lt;extends&amp;gt;&amp;gt;&lt;/font&gt;&lt;/span&gt;&lt;/div&gt;" style="endArrow=open;endSize=12;dashed=1;html=1;rounded=0;strokeColor=light-dark(#000000,#000000);align=center;strokeWidth=2;fontStyle=1;entryX=1;entryY=0.5;entryDx=0;entryDy=0;exitX=0;exitY=0.5;exitDx=0;exitDy=0;" parent="1" source="izpkNmqfASUITOl6WTfw-37" target="izpkNmqfASUITOl6WTfw-35" edge="1">
          <mxGeometry width="160" relative="1" as="geometry">
            <mxPoint x="1174" y="990.5" as="sourcePoint" />
            <mxPoint x="1175" y="874.5" as="targetPoint" />
          </mxGeometry>
        </mxCell>
        <mxCell id="izpkNmqfASUITOl6WTfw-43" value="" style="endArrow=none;html=1;rounded=0;strokeColor=light-dark(#000000,#000000);entryX=0;entryY=0.5;entryDx=0;entryDy=0;strokeWidth=2;fontStyle=1;exitX=0.5;exitY=0.5;exitDx=0;exitDy=0;exitPerimeter=0;" parent="1" source="izpkNmqfASUITOl6WTfw-36" target="izpkNmqfASUITOl6WTfw-35" edge="1">
          <mxGeometry width="50" height="50" relative="1" as="geometry">
            <mxPoint x="890" y="197.5" as="sourcePoint" />
            <mxPoint x="1025" y="197.5" as="targetPoint" />
            <Array as="points" />
          </mxGeometry>
        </mxCell>
        <mxCell id="izpkNmqfASUITOl6WTfw-44" value="&lt;div style=&quot;&quot;&gt;&lt;span style=&quot;color: light-dark(rgb(0, 0, 0), rgb(0, 0, 0)); background-color: light-dark(rgb(255, 255, 255), rgb(255, 255, 255));&quot;&gt;&lt;font face=&quot;Helvetica&quot;&gt;&amp;lt;&amp;lt; include &amp;gt;&amp;gt;&lt;/font&gt;&lt;/span&gt;&lt;/div&gt;" style="endArrow=open;endSize=12;dashed=1;html=1;rounded=0;strokeColor=light-dark(#000000,#000000);align=center;strokeWidth=2;fontStyle=1;entryX=0.034;entryY=0.648;entryDx=0;entryDy=0;entryPerimeter=0;" parent="1" source="izpkNmqfASUITOl6WTfw-38" target="izpkNmqfASUITOl6WTfw-39" edge="1">
          <mxGeometry width="160" relative="1" as="geometry">
            <mxPoint x="1285" y="387.5" as="sourcePoint" />
            <mxPoint x="1525" y="387.5" as="targetPoint" />
            <mxPoint as="offset" />
          </mxGeometry>
        </mxCell>
        <mxCell id="izpkNmqfASUITOl6WTfw-45" value="&lt;div style=&quot;&quot;&gt;&lt;span style=&quot;color: light-dark(rgb(0, 0, 0), rgb(0, 0, 0)); background-color: light-dark(rgb(255, 255, 255), rgb(255, 255, 255));&quot;&gt;&lt;font face=&quot;Helvetica&quot;&gt;&amp;lt;&amp;lt; include &amp;gt;&amp;gt;&lt;/font&gt;&lt;/span&gt;&lt;/div&gt;" style="endArrow=open;endSize=12;dashed=1;html=1;rounded=0;strokeColor=light-dark(#000000,#000000);align=center;strokeWidth=2;fontStyle=1;entryX=0.5;entryY=0;entryDx=0;entryDy=0;exitX=0.5;exitY=1;exitDx=0;exitDy=0;" parent="1" source="izpkNmqfASUITOl6WTfw-37" target="izpkNmqfASUITOl6WTfw-39" edge="1">
          <mxGeometry width="160" relative="1" as="geometry">
            <mxPoint x="1221" y="805.5" as="sourcePoint" />
            <mxPoint x="1220" y="727.5" as="targetPoint" />
          </mxGeometry>
        </mxCell>
        <mxCell id="izpkNmqfASUITOl6WTfw-46" value="" style="rounded=0;whiteSpace=wrap;html=1;fillColor=none;strokeColor=light-dark(#000000,#000000);" parent="1" vertex="1">
          <mxGeometry x="1010" y="530" width="845" height="540" as="geometry" />
        </mxCell>
        <mxCell id="izpkNmqfASUITOl6WTfw-47" value="&lt;span style=&quot;font-size: 30px;&quot;&gt;&lt;b&gt;Use case quản lý người dùng&amp;nbsp;&lt;/b&gt;&lt;/span&gt;" style="text;html=1;align=center;verticalAlign=middle;whiteSpace=wrap;rounded=0;" parent="1" vertex="1">
          <mxGeometry x="1135" y="577.5" width="560" height="30" as="geometry" />
        </mxCell>
      </root>
    </mxGraphModel>
  </diagram>
</mxfile>
